<?xml version="1.0" encoding="UTF-8"?>
<svg version="1.1" viewBox="160.82 124.16 1781.35 634.83" xmlns="http://www.w3.org/2000/svg">
<path transform="translate(666,124)" d="m0 0h56l-2 10-18 56-18 57-42 132-18 57-21 66-2 9v8l3 7 6 4h14l9-4 9-6 14-12 12-12 7-9 9-6 9-3h10l8 4 6 7 2 6v14l-4 8-6 5-6 2-8 1 5 10 6 5 7 3 5 1h16l12-4 11-7 7-8 4-8v-14l-4-11-9-13-7-7-7-8-9-9-8-11-6-12-2-8v-21l5-16 7-12 10-11 10-7 12-6 14-4 6-1h22l20 4 16 8 7 6 6 10 3 9v19l-4 10-6 8-9 5-4 1h-9l-7-3-6-5-3-7v-12l4-8 8-7h3v-2l-5-2-9-4-6-1h-9l-10 3-6 4-6 10-2 9 1 11 7 14 12 13 14 15 9 11 8 14 4 12 1 5v20l-4 15-6 12-8 10-8 8-14 9-11 5-19 5-9 1h-17l-14-2-16-5-12-7-8-7-7-10-6-14-15 15-11 9-11 8-15 8-14 4-6 1h-12l-11-3-10-6-7-8-6-12-4-17-9 9-8 7-17 13-14 8-14 6-15 3h-12l-12-3-10-6-8-11-4-13v-25l5-21 26-84 4-13-43-1-1 6-13 32-10 22-12 22-14 21-13 16-17 17-16 12-21 11-18 6-15 3-8 1h-31l-17-4-10-4-13-9-9-10-8-14-4-14-1-7v-18l3-14 6-14 8-11 7-8 12-9 15-7 16-3h8l12 3 6 4 6 7 2 6v14l-4 11-6 7-8 4-4 1h-11l-10-4-6-7-2-4-6 1-5 4-6 11-2 6v13l6 12 9 7 8 4 13 3h17l16-3 16-6 15-9 11-9 15-15 11-15 8-13 12-23 9-23 3-9-66-1 1-7 14-36 66-1 21-56 12-34 11-26 10-20 12-18 9-11 11-12 15-12 16-10 17-8 22-7 20-4 16-2h27l-13 42-24 76-20 64-23 73-35 112-1 5v8l3 6 6 4h14l14-7 10-8 13-12 13-13 17-54 36-116 50-161zm-147 67-10 5-10 9-10 12-11 18-14 27-11 27-26 69v3h42l3-7 24-76 17-55 9-29v-3z" fill="#FEFEFE"/>
<path transform="translate(970,348)" d="m0 0h8l11 2 9 5 56 1-13 41-29 88-7 23v13l3 6 6 3h14l14-7 13-11 9-9 8-7 7-8 36-116 5-16h55l-2 9-1 6 10-8 14-8 10-4 9-2 16-1 10 2 9 6 4 5 4 10v7l11-9 12-9 14-7 15-4 17-1 9 2 8 5 5 6 4 10 1 13-3 20-9 29-22 67-2 7v15l3 5 6 3h14l12-6 14-11 11-11 4-25 6-20 6-15 12-23 11-16 11-13 8-9 8-7 10-8 13-8 16-7 16-3 15 1 10 4 3 2 55 1-2 9-14 43-18 55-14 44-1 9 2 8 5 5 3 1h14l12-6 14-11 17-17 8-7h1v34l-15 16-14 14-14 11-14 9-16 6-11 2h-11l-12-3-9-6-8-9v-2l-16 10-11 5-14 4-7 1h-12l-12-3-8-4-10-9-7-9-6-14-2-5-17 17-17 13-12 7-14 5-11 2h-12l-11-3-9-5-8-8-7-14-2-9v-20l5-21 18-56 7-22 1-5v-7l-3-6-5-3h-10l-9 4-8 7-4 5-22 68-18 57-10 30h-54l10-33 20-63 17-54 1-5v-7l-3-6-5-3h-10l-12 6-9 7-10 31-22 69-18 57-1 1h-53l8-27v-3l-12 12-13 10-13 8-12 5-15 3h-11l-9-2-8-4-10-9-2-5-14 9-15 7-12 3-7 1h-12l-12-3-11-6-9-9-7-11-5-14-2-11v-31l4-22 5-17 10-23 10-18 13-18 12-13 12-12 15-11 15-8 17-5zm-4 43-13 5-13 11-9 12-9 16-8 21-5 17-3 17-1 13 2 15 6 12 5 4 5 2h7l12-5 6-4 3-19 17-55 17-56-1-3-7-3zm529 0-11 4-11 8-9 10-9 14-8 17-8 24-4 20-1 10v9l2 12 5 10 6 5 5 2h7l12-5 6-5 2-14 9-31 18-58 8-27-3-3-5-2z" fill="#FEFEFE"/>
<path transform="translate(1739,407)" d="m0 0h13l13 4 10 7 6 5 10 14 7 14 4 14 1 8v14l-3 18-6 17-8 16-7 12-9 12-12 14-12 12-8 7-15 12-12 8 30 5 66 14 44 11 16 7 10 6 12 11 7 10 5 11 2 8v18l-4 11-7 9-9 7-9 4-10 2h-15l-15-3-12-5-11-6-16-12-6-4-1 17-3 10-8 9-10 4h-14l-17-5-13-7-11-8-20-18-37-37-8-7-12-12h-2l1 5 6 16 1 5v10l-4 11-8 7-6 2h-13l-9-4-7-8-3-7v-10l4-5 2-1h8l5 3 3 4v10l-1 3 9-1 4-5 1-9-3-10-5-8-8-7-10-5-17-5-28-5-39-4-46-3-57-2-48-1v-4l63-1 60-2 34-2 23-3 21-5 19-7 16-8 12-8 11-9 8-7 7-8 12-16 10-18 8-17 17-47 11-26 8-17 9-14 7-7 14-7zm0 14-9 2-8 5-8 9-8 16-8 25-8 24-10 24-8 16-8 15-12 19-14 18-9 10v1l8-1 36-15 23-10 25-12 15-10 12-11 8-9 7-11 6-12 5-17 2-13v-23l-4-14-6-11-5-6-9-6-5-2zm-76 204-6 1 1 3 43 14 21 8 17 9 16 11 14 11 10 9 8 7 10 9 12 10 16 9 13 5 10 2h21l11-4 7-8 3-7 1-11-4-13-9-13-9-8-12-7-22-8-35-10-30-7-33-6-46-6zm38 27 2 5 9 12 5 10v9l-2 4-2 1h-37l6 7 13 12 14 13 14 11 8 4 8 2h9l11-2 9-6 5-10v-14l-4-10-10-13-12-12-16-12-15-8-10-3z" fill="#FEFEFE"/>
<path transform="translate(1834,576)" d="m0 0 11 2 6 5 2 6-1 9-5 10-8 7-4 2h-13l-10-5-4-5-2-5v-9l6-10 9-5z" fill="#FEFEFE"/>
<path transform="translate(1842,521)" d="m0 0h10l8 4 5 8v10l-3 6-7 6-3 1h-11l-9-4-6-5-2-5 1-8 7-8z" fill="#FEFEFE"/>
<path transform="translate(1888,518)" d="m0 0h14l6 4 3 3 1 3v7l-3 5-6 5-5 2h-10l-8-4-4-6v-8l4-6z" fill="#FEFEFE"/>
<path transform="translate(1912,563)" d="m0 0h9l7 3 3 4v9l-4 6-6 5-9 2-8-2-6-5-2-7 2-7 7-6z" fill="#FEFEFE"/>
<path transform="translate(1874,592)" d="m0 0 10 1 6 5v10l-6 9-5 3-10 1-8-3-5-6v-9l4-6 8-4z" fill="#FEFEFE"/>
<path transform="translate(1868,552)" d="m0 0h10l6 3 4 5v8l-6 7-4 2h-14l-6-4-2-3v-9l5-6z" fill="#FEFEFE"/>
<path transform="translate(1928,533)" d="m0 0h9l5 5-1 8-5 3h-10l-5-4v-6l5-5z" fill="#FEFEFE"/>
<path transform="translate(1779,583)" d="m0 0 9 1 5 5v6l-4 3-3 1h-10l-4-3-1-5 3-5z" fill="#FEFEFE"/>
<path transform="translate(1807,547)" d="m0 0 8 1 4 5-1 5-7 5-3 1h-7l-3-5 1-7 5-4z" fill="#FEFEFE"/>
</svg>
