<?xml version="1.0" standalone="no"?>
<!DOCTYPE svg PUBLIC "-//W3C//DTD SVG 20010904//EN"
 "http://www.w3.org/TR/2001/REC-SVG-20010904/DTD/svg10.dtd">
<svg version="1.0" xmlns="http://www.w3.org/2000/svg"
 viewBox="18.38 156.00 775.62 277.13"
 preserveAspectRatio="xMidYMid meet">

<g transform="translate(0.000000,600.000000) scale(0.100000,-0.100000)"
fill="#000000" stroke="none">
<path d="M2341 4303 c-24 -76 -82 -266 -131 -423 -172 -555 -259 -836 -289
-937 -31 -101 -32 -102 -106 -171 -76 -71 -143 -112 -184 -112 -26 0 -71 42
-71 67 0 10 41 149 91 308 50 160 104 333 119 385 16 52 90 288 164 524 75
237 134 431 132 433 -2 2 -53 -1 -114 -7 -350 -33 -554 -204 -691 -580 -17
-47 -55 -150 -84 -230 l-53 -145 -145 -3 -145 -3 -32 -84 c-18 -47 -32 -90
-32 -95 0 -6 57 -10 145 -10 l145 0 -24 -63 c-57 -152 -132 -272 -224 -360
-160 -151 -394 -175 -479 -47 -35 51 -27 113 21 168 26 29 50 28 64 -2 16 -35
79 -52 124 -33 49 21 70 51 76 107 19 196 -292 158 -398 -49 -46 -91 -46 -210
0 -301 28 -54 99 -115 161 -136 120 -41 315 -16 448 59 69 39 193 161 251 246
46 68 145 271 176 359 l18 52 97 0 98 0 -19 -57 c-121 -376 -135 -427 -135
-513 0 -71 4 -91 23 -121 37 -60 66 -74 152 -74 65 1 84 5 140 34 62 31 114
69 183 132 17 15 34 26 37 24 4 -3 10 -23 13 -45 6 -44 43 -100 85 -128 19
-12 46 -17 97 -17 60 1 79 6 135 35 36 19 95 63 132 98 l67 63 19 -43 c40 -90
125 -143 247 -154 175 -16 323 58 396 198 19 34 23 59 23 123 0 104 -23 150
-138 275 -91 98 -112 141 -101 203 7 37 20 56 55 80 31 21 111 22 151 2 l30
-16 -30 -24 c-73 -62 -36 -165 58 -165 58 0 111 67 111 139 0 128 -98 201
-270 201 -110 0 -179 -27 -246 -96 -64 -65 -89 -130 -81 -214 6 -75 23 -104
113 -203 88 -96 114 -141 114 -198 0 -145 -253 -215 -317 -88 -12 23 -11 24
24 30 46 8 73 40 73 88 0 74 -45 115 -113 104 -30 -5 -56 -24 -131 -99 -102
-103 -165 -140 -216 -129 -32 7 -60 38 -60 67 0 16 221 724 444 1422 47 148
86 273 86 277 0 5 -53 9 -118 9 l-119 0 -42 -137z m-601 -210 c-10 -32 -62
-199 -116 -370 l-98 -313 -93 0 c-51 0 -93 2 -93 5 0 12 141 377 170 441 68
151 180 294 229 294 19 0 19 -1 1 -57z"/>
<path d="M3608 3436 c-102 -42 -199 -129 -285 -256 -101 -150 -158 -357 -135
-494 35 -216 187 -291 385 -190 l69 35 38 -35 c88 -79 219 -54 365 70 36 30
65 53 65 52 0 -2 -9 -32 -20 -68 -11 -36 -20 -66 -20 -67 0 -2 51 -3 114 -3
101 0 115 2 120 18 42 146 211 670 219 680 6 7 30 25 54 39 50 29 84 26 109
-12 18 -27 23 -6 -117 -451 -43 -139 -79 -257 -79 -263 0 -8 33 -11 112 -9
l111 3 28 85 c15 47 64 200 109 340 88 275 102 301 171 321 44 14 76 0 85 -37
4 -17 -15 -94 -60 -237 -37 -117 -70 -237 -73 -267 -7 -73 10 -133 54 -180 88
-99 247 -69 401 74 34 32 64 57 65 55 1 -2 16 -31 33 -64 53 -103 136 -141
256 -116 30 7 79 26 108 44 l53 32 38 -37 c46 -44 101 -56 179 -39 75 16 133
54 238 155 l92 89 0 68 c0 38 -3 69 -6 69 -4 0 -41 -33 -84 -74 -114 -109
-202 -133 -237 -65 -19 35 -33 -15 203 712 5 15 -5 17 -109 17 -82 0 -125 4
-153 16 -55 23 -146 15 -214 -18 -182 -89 -358 -342 -392 -565 -11 -72 -14
-76 -62 -120 -63 -57 -126 -87 -166 -78 -71 16 -69 59 19 328 79 244 95 314
81 371 -14 63 -48 89 -122 94 -81 5 -159 -23 -234 -84 -38 -31 -54 -39 -54
-28 0 31 -33 85 -61 99 -64 34 -185 11 -269 -49 -51 -37 -57 -36 -40 8 l10 26
-119 0 -118 0 -72 -232 c-40 -128 -80 -258 -89 -288 -18 -62 -89 -145 -178
-206 -69 -48 -115 -54 -148 -21 -14 15 -26 37 -26 51 0 14 41 150 91 303 49
153 99 304 109 336 l19 57 -119 0 c-85 0 -126 4 -146 15 -43 22 -130 18 -196
-9z m152 -165 c14 -10 7 -39 -110 -416 -15 -49 -31 -109 -35 -133 -6 -37 -12
-45 -47 -63 -54 -27 -90 -19 -120 29 -76 124 51 500 194 571 45 22 93 27 118
12z m2294 3 c9 -3 16 -13 16 -21 0 -7 -23 -89 -51 -181 -52 -168 -90 -298
-106 -361 -6 -25 -18 -39 -47 -54 -48 -25 -81 -16 -114 33 -22 32 -24 42 -19
130 10 189 115 398 224 446 31 14 73 17 97 8z"/>
<path d="M7037 3200 c-89 -28 -141 -116 -253 -430 -52 -144 -87 -210 -157
-298 -123 -152 -291 -231 -532 -252 -60 -5 -236 -12 -390 -17 -154 -4 -264 -9
-245 -10 19 -1 152 -7 294 -13 534 -22 732 -58 786 -145 42 -68 35 -128 -15
-137 -24 -5 -26 -3 -20 23 5 20 1 33 -14 48 -25 25 -44 26 -65 5 -25 -24 -19
-60 15 -99 27 -31 37 -35 79 -35 85 0 128 71 95 160 -9 25 -19 56 -22 70 -7
29 6 18 213 -182 68 -67 139 -132 157 -145 50 -38 115 -64 172 -70 49 -5 55
-3 89 28 32 30 37 41 41 89 4 61 13 65 55 25 43 -39 132 -83 193 -94 188 -34
312 115 231 276 -48 97 -129 150 -294 191 -132 34 -347 79 -437 93 -46 8 -83
16 -83 19 0 3 19 17 43 32 124 80 261 241 318 374 30 72 33 88 33 179 1 89 -3
106 -27 156 -28 59 -84 122 -128 145 -36 18 -98 25 -132 14z m60 -61 c164 -62
159 -374 -9 -542 -29 -29 -82 -69 -118 -89 -89 -50 -379 -172 -387 -164 -4 3
7 21 24 39 95 99 199 299 273 523 51 153 82 207 134 230 38 16 47 17 83 3z
m-37 -914 c169 -28 293 -58 439 -107 71 -25 105 -42 141 -75 86 -77 102 -169
40 -228 -25 -24 -41 -30 -93 -33 -110 -7 -185 32 -352 181 -125 110 -221 170
-345 213 -181 63 -190 66 -183 77 9 15 172 2 353 -28z m-81 -115 c83 -40 203
-157 221 -217 7 -23 10 -53 6 -68 -16 -62 -95 -97 -172 -76 -36 10 -182 126
-239 190 l-19 22 74 -4 c41 -2 83 0 93 5 27 14 21 61 -18 118 -19 29 -35 54
-35 56 0 10 30 1 89 -26z"/>
<path d="M7674 2695 c-18 -19 -23 -31 -19 -48 16 -52 88 -65 130 -22 30 29 31
49 5 75 -29 29 -84 27 -116 -5z"/>
<path d="M7478 2694 c-31 -16 -48 -43 -48 -73 0 -27 54 -61 96 -61 69 0 102
87 48 129 -31 24 -58 26 -96 5z"/>
<path d="M7872 2649 c-17 -6 -22 -15 -20 -31 2 -19 9 -23 37 -23 44 0 65 29
37 51 -23 16 -23 16 -54 3z"/>
<path d="M7324 2576 c-9 -23 0 -50 17 -54 24 -4 64 32 56 51 -8 21 -65 23 -73
3z"/>
<path d="M7581 2544 c-24 -30 -15 -58 24 -76 52 -23 116 36 88 81 -6 9 -27 17
-50 19 -34 3 -44 -1 -62 -24z"/>
<path d="M7761 2494 c-11 -15 -21 -31 -21 -36 0 -15 48 -58 65 -58 31 0 75 30
81 57 10 40 -7 58 -58 61 -40 3 -49 -1 -67 -24z"/>
<path d="M7379 2431 c-40 -40 -39 -81 2 -115 52 -44 122 -28 155 35 35 70 9
109 -72 109 -48 0 -60 -4 -85 -29z"/>
<path d="M7216 2427 c-28 -20 -17 -51 20 -55 43 -4 63 21 39 48 -21 23 -34 25
-59 7z"/>
<path d="M7588 2373 c-26 -31 -29 -42 -18 -63 37 -69 149 -27 138 51 -3 21 -9
24 -54 27 -38 2 -54 -1 -66 -15z"/>
</g>
</svg>
